<svg fill="none" height="400" viewBox="0 0 1040 400" width="1040" xmlns="http://www.w3.org/2000/svg" xmlns:xlink="http://www.w3.org/1999/xlink"><clipPath id="a"><path d="m0 0h1040v400h-1040z"/></clipPath><g clip-path="url(#a)"><path d="m0 0h1040v400h-1040z" fill="#051627"/><g stroke-linecap="round" stroke-linejoin="round" stroke-miterlimit="10" stroke-width="2"><path d="m531.176 161.391v-26.454c0-3.893 4.326-6.489 7.643-4.47l32.159 18.458c2.74 1.587 2.74 5.48 0 7.067l-45.282 25.236c-2.596 1.442-5.912 1.442-8.508 0l-28.698-16.151" stroke="#0572ec"/><path d="m519.928 119.651-65.038 37.638c-3.173 1.875-3.173 6.346 0 8.22l58.693 33.89c3.893 2.307 8.796 2.307 12.834 0l58.693-33.89c3.173-1.874 7.067.433 7.067 4.038v69.798c0 3.316-1.731 6.489-4.615 8.075l-67.49 38.937" stroke="#f1faff"/><path d="m505.651 277.993-53.646-31.005c-2.595-1.442-4.182-4.327-4.182-7.355v-54.799c0-2.885 3.029-4.615 5.48-3.173l55.088 32.159" stroke="#cda5dc"/><path d="m478.107 218.434 38.36 22.209c2.163 1.297 3.461 3.605 3.461 6.056v18.603" stroke="#66cbff"/><path d="m456.62 206.609 13.988 8.076" stroke="#0572ec"/><path d="m456.62 223.77 32.88 18.891" stroke="#66cbff"/><path d="m551.543 221.197 20.444 11.803c3.75 2.163 8.509-.577 8.509-4.904v-40.09c0-2.451-2.74-4.038-4.903-2.74l-33.169 19.036" stroke="#66cbff"/><path d="m563.912 240.642-22.497 12.979c-3.028 1.731-6.922-.432-6.922-4.038v-23.217" stroke="#0572ec"/><path d="m555.578 99.394 67.807 38.242c3.143 1.773 5.087 5.101 5.087 8.71v70.696c0 3.561 1.895 6.854 4.974 8.644l61.91 36.002c3.109 1.808 6.95 1.807 10.058-.002l61.771-35.957c3.116-1.813 6.967-1.809 10.079.01l137.09 80.168" stroke="#cda5dc"/><path d="m556.407 116.174 53.344 30.27c3.13 1.777 5.065 5.098 5.065 8.698v70.383c0 3.577 1.91 6.882 5.01 8.667l74.84 43.086c3.041 1.751 6.778 1.78 9.846.075l62.502-34.723c3.101-1.722 6.882-1.673 9.938.129l104.406 61.601" stroke="#35414c"/><path d="m484.418 305.906-67.807-38.241c-3.143-1.773-5.087-5.102-5.087-8.711v-70.695c0-3.562-1.895-6.854-4.973-8.645l-61.911-36.001c-3.109-1.808-6.949-1.807-10.058.002l-61.771 35.956c-3.116 1.814-6.967 1.81-10.079-.01l-137.09-80.167" stroke="#cda5dc"/><path d="m421.525 289.226-19.917-11.081c-3.172-1.765-5.138-5.109-5.138-8.739v-70.625c0-3.578-1.912-6.884-5.014-8.668l-46.257-26.608" stroke="#35414c"/><path d="m486.005 98.4976-67.749 38.7134c-3.096 1.769-6.9 1.756-9.984-.035l-61.468-35.705c-3.157-1.8339-7.062-1.8017-10.188.083l-58.83 35.48c-3.107 1.874-6.984 1.918-10.133.116l-67.517-38.6524" stroke="#66cbff"/><path d="m484.418 115.02-67.748 38.714c-3.096 1.769-6.901 1.756-9.984-.036l-61.469-35.705c-3.156-1.833-7.061-1.801-10.187.084l-58.83 35.48c-3.107 1.874-6.984 1.918-10.133.115l-67.518-38.652" stroke="#35414c"/><path d="m841.447 305.742-67.749-38.713c-3.096-1.769-6.9-1.756-9.984.035l-61.468 35.705c-3.157 1.834-7.061 1.802-10.187-.083l-58.837-35.484c-3.103-1.872-6.976-1.918-10.123-.121l-30.438 17.381" stroke="#66cbff"/><path d="m840.963 321.512-67.749-38.713c-3.096-1.77-6.9-1.756-9.984.035l-61.468 35.705c-3.157 1.833-7.061 1.801-10.187-.084l-63.863-38.515" stroke="#35414c"/><path d="m678.588 184.292c-4.8-2.8-8.711-4-8.711-2.756v8.89c0 5.955 2.311 12.756 6.044 17.822l2.667 3.6 2.667-.533c3.733-.755 6.045-4.889 6.045-10.8v-8.889c0-1.289-3.912-4.578-8.712-7.334z" stroke="#cda5dc"/><path d="m415.275 306.35-33.826-19.781c-3.067-1.793-4.952-5.079-4.952-8.632v-69.817c0-3.493-1.822-6.732-4.807-8.546l-24.588-14.94c-3.133-1.903-7.056-1.94-10.224-.096l-18.933 11.023m-187.914-14.015 100.34 59.09c3.117 1.835 6.981 1.845 10.106.026l37.245-21.684" stroke="#0572ec"/><path d="m277.847 235.021-37.59 21.942c-3.126 1.825-6.995 1.818-10.115-.019l-100.334-59.087" stroke="#35414c"/><path d="m740.219 114.516c0-7.25 4.223-10.698 9.502-7.672.492.282.985.634 1.478 1.056 2.111-4.786 6.616-6.405 11.754-3.379 6.687 3.872 12.177 14.007 13.021 23.438 3.59 2.816 6.264 8.658 6.264 13.796 0 5.42-3.026 8.094-6.897 6.264v.071l-25.62-14.781-65.935-38.1081" stroke="#0572ec"/><path d="m755.302 91.88c-2.464-4.8566-5.913-9.0093-9.713-11.1912-5.42-3.0969-10.136-1.4781-12.318 3.5192-.492-.4223-1.056-.7742-1.548-1.0558-5.49-3.1673-9.925.4224-9.925 8.0239 0 7.6016 4.435 16.3289 9.925 19.4969l26.887 15.484" stroke="#66cbff"/><path d="m936.001 318.267 29.116 16.806" stroke="#cda5dc"/><path d="m78.4254 70.9056 29.1166 16.8064" stroke="#cda5dc"/><path d="m856.013 313.992 16.846 9.682" stroke="#66cbff"/><path d="m102.74 165.954 16.847 9.682" stroke="#0572ec"/><path d="m138.623 234.736 33.584 19.301" stroke="#0572ec"/><path d="m173.793 82.8711 16.847 9.6818" stroke="#66cbff"/><path d="m172.207 99.394 16.846 9.682" stroke="#35414c"/><g stroke="#0572ec"><path d="m853.735 228.723 52.558 29.732"/><path d="m832.64 206.715 5.096 7.866 4.986 7.755-4.986 1.994-5.096 1.994"/><path d="m810.592 194.416-4.985 1.995-4.986 1.994 4.986 7.755 4.985 7.866"/><path d="m819.011 191.537 5.761 35.674"/><path d="m353.057 228.888-12.892-7.428v-7.567c0-4.111 2.896-5.792 6.446-3.737s6.446 7.054 6.446 11.164z"/></g><path d="m352.45 253.599-11.631-6.727c-1.775-1.028-3.223-3.55-3.223-5.605v-17.611c0-2.055 1.448-2.896 3.223-1.869l11.631 6.727c1.775 1.028 3.223 3.55 3.223 5.606v17.61c0 2.056-1.448 2.896-3.223 1.869z" stroke="#66cbff"/><path d="m667.589 164.87v-6.466c0-3.163 3.444-5.201 6.185-3.584l33.948 19.609c3.093 1.757 4.92 5.061 4.92 8.575v39.992c0 2.812-3.093 4.569-5.482 3.163l-6.045-3.514" stroke="#66cbff"/><path d="m701.115 189.962v39.993c0 2.811-3.093 4.568-5.483 3.162l-34.65-20.031c-3.093-1.757-4.92-5.06-4.92-8.575v-39.219c0-3.163 3.444-5.201 6.185-3.585l33.948 19.61c3.022 1.827 4.92 5.131 4.92 8.645z" stroke="#0572ec"/><path d="m390.192 92.5634-4.253 2.4553c-2.08 1.201-2.113 4.2401-.009 5.4293l25.788 14.881c2.33 1.366 5.196 1.314 7.508-.02l26.302-15.186c1.849-1.0678 1.831-3.7689-.001-4.8068l-4.607-2.641" stroke="#66cbff"/><path d="m419.425 105.085 26.303-15.1857c1.849-1.0675 1.83-3.7687-.002-4.8066l-26.332-15.1832c-2.33-1.3667-5.196-1.3142-7.508.0202l-25.794 14.8922c-2.08 1.201-2.113 4.2401-.009 5.4291l25.788 14.881c2.349 1.294 5.243 1.288 7.554-.047z" stroke="#0572ec"/><path d="m648.98 111.629 81.307 46.802c3.101 1.785 5.012 5.09 5.012 8.667v26.683c0 3.83 4.129 6.238 7.463 4.351l23.849-13.5c3.132-1.773 6.976-1.726 10.064.123l14.164 8.483" stroke="#0572ec"/><path d="m686.432 115.416 59.594 35.108c3.051 1.798 4.924 5.075 4.924 8.616v17.448" stroke="#35414c"/><path d="m349.065 283.893.128 19.79" stroke="#0572ec"/><path d="m219.948 281.247 82.458 47.136c3.077 1.76 6.856 1.758 9.932-.003l30.718-17.592c3.758-2.265 6.374-4.335 6.127-8.083" stroke="#0572ec"/><path d="m267.041 279.895 35.313-20.05c3.106-1.764 6.917-1.737 9.998.071l34.111 20.015c3.299 1.936 3.291 6.71-.016 8.634l-34.126 19.856c-3.065 1.783-6.846 1.81-9.935.07l-35.329-19.891c-3.389-1.908-3.398-6.785-.016-8.705z" stroke="#0572ec"/><path d="m342.192 301.007-17.305 9.934" stroke="#0572ec"/></g><path d="m318.772 315.569c.8-1.653.692-3.359-.241-3.81-.933-.452-2.338.522-3.138 2.175-.799 1.653-.691 3.358.242 3.81s2.337-.522 3.137-2.175z" fill="#0572ec"/><path d="m615.205 104.729c.014.002.029.002.043.001l.029-.002c.093-.005.182.042.229.123.009.017.021.032.034.046l4.49 4.738c.03.031.077.038.114.016.01-.005.021-.009.033-.011l9.193-1.443c.012-.002.025-.007.036-.013.038-.022.058-.064.053-.106l-.674-5.258c-.004-.028-.002-.055.005-.081.014-.054.05-.1.098-.128l.082-.047c1.506-.66 2.876-1.556 4.123-2.485.103-.06.219-.095.338-.1021l.021-.0013 9.377.3284c.027.001.054-.006.077-.019.028-.016.05-.041.062-.07l2.221-5.3378c.019-.0692-.021-.1407-.089-.1618l-8.095-2.4933c-.048-.015-.094-.0369-.137-.0649l-.058-.0382c-.031-.0207-.057-.0483-.076-.0808-.011-.0194-.019-.0403-.025-.062-.323-1.2707-.922-2.4842-1.754-3.5638l-.01-.0176c-.044-.0772-.018-.1758.059-.2203.012-.0067.023-.015.032-.0244l4.529-4.4376c.074-.0731.062-.1964-.025-.254l-7.094-3.9561c-.013-.0071-.023-.0174-.031-.0299-.019-.0343-.061-.049-.098-.0347l-7.091 2.7507c-.027.0107-.054.0236-.08.0384l-.006.0034c-.074.0428-.157.0678-.242.0729-.049.0029-.097-.0006-.145-.0103-2.118-.4361-4.238-.869-6.5-1.0148l-.048.0029c-.095.0057-.184-.0425-.231-.1245-.009-.0156-.02-.0303-.032-.0436l-4.199-4.5919c-.029-.032-.077-.0393-.114-.0177-.01.0056-.02.0093-.031.0111l-9.149 1.5218c-.013.0021-.025.0065-.036.013-.038.0216-.059.0634-.054.1063l.573 4.8987c.003.0266.001.0536-.006.0795-.014.0543-.05.1006-.099.1287l-.055.0318c-.017.0101-.035.0187-.054.0258-2.034.7658-3.619 1.7804-4.918 2.9369-.028.0246-.058.0463-.09.0648-.072.0414-.152.0656-.235.0705l-.077.0047-8.395-.2653c-.028-.0008-.055.006-.079.0198-.027.0158-.049.0399-.061.0688l-2.374 5.4188c-.003.0067-.008.0122-.014.0158-.026.015-.021.0538.008.0623l7.75 2.2743.147.0393c.056.015.089.0725.074.1284-.004.015-.004.0307-.002.0459.246 1.3163.933 2.6842 1.884 3.7976.007.0078.013.0162.018.0251l.002.0041c.045.0772.019.176-.059.2206-.011.0067-.022.0148-.032.0241l-4.337 4.2235c-.075.073-.063.196.024.253l7.049 3.878c.013.007.023.017.031.03.019.034.061.049.098.035l7.106-2.757c.017-.007.034-.015.051-.025.085-.049.186-.062.28-.037l.1.027c2.09.362 4.336.632 6.538.825zm.527-18.0106c5.845-.2288 11.004 2.3501 11.537 5.8169.534 3.4669-3.767 6.3695-9.736 6.565-5.845.2288-11.004-2.3501-11.537-5.8169-.534-3.4669 3.767-6.3695 9.736-6.565z" stroke="#0572ec" stroke-linecap="round" stroke-linejoin="round" stroke-miterlimit="10" stroke-width="2"/><path d="m295.66 83.0297.906 5.7092-9.787-.5438.815 5.3467-9.334-.4531-.09.0907.906 5.5279c-1.178-.4531-6.978-1.2687-10.15-.9968-10.24 1.0874-16.04 5.7095-15.224 10.6935.815 4.984 10.24 8.609 19.302 7.884 8.609-.634 15.043-4.803 14.228-9.787-.181-.906-.544-1.813-1.088-2.719l22.747-13.1401-1.088-6.9779z" stroke="#0572ec" stroke-linecap="round" stroke-linejoin="round" stroke-miterlimit="10" stroke-width="2"/><path d="m539.861 327.433 44.193-25.47c4.543-2.615 8.123-8.948 8.123-14.18v-1.79c0-5.231-3.718-7.297-8.123-4.681l-44.193 25.47c-4.544 2.616-8.123 8.949-8.123 14.18v1.79c0 5.094 3.717 7.297 8.123 4.681z" stroke="#66cbff" stroke-linecap="round" stroke-linejoin="round" stroke-miterlimit="10" stroke-width="2"/><path d="m548.805 314.554c1.06-2.19.92-4.449-.312-5.045s-3.09.696-4.149 2.886c-1.06 2.19-.921 4.448.311 5.045 1.232.596 3.09-.696 4.15-2.886z" fill="#66cbff"/><path d="m559.088 308.393c1.06-2.19.921-4.448-.311-5.045-1.232-.596-3.09.696-4.15 2.886s-.92 4.449.312 5.045 3.089-.696 4.149-2.886z" fill="#66cbff"/><path d="m569.502 302.568c1.06-2.191.92-4.449-.311-5.045-1.232-.597-3.09.696-4.15 2.886s-.92 4.448.311 5.045c1.232.596 3.09-.696 4.15-2.886z" fill="#66cbff"/><path d="m580.173 296.326c1.059-2.19.92-4.449-.312-5.045s-3.09.696-4.15 2.886c-1.059 2.19-.92 4.449.312 5.045s3.09-.696 4.15-2.886z" fill="#66cbff"/><g stroke-linecap="round" stroke-linejoin="round" stroke-miterlimit="10" stroke-width="2"><path d="m438.762 330.084-15.308-8.733c-4.544-2.565-8.179-8.872-8.179-14.07v-1.802c0-5.198 3.635-7.278 8.179-4.713l15.308 8.733c4.544 2.564 8.179 8.871 8.179 14.069v1.802c0 5.268-3.635 7.347-8.179 4.714z" stroke="#0572ec"/><path d="m443.732 331.085c3.381-1.309 4.209-7.226 1.85-13.216s-7.012-9.785-10.392-8.477c-3.38 1.309-4.209 7.226-1.85 13.216s7.012 9.786 10.392 8.477z" stroke="#66cbff"/><path d="m207.351 197.85c-.416 4.996-3.705 7.161-7.66 4.871l-19.152-11.075v-10.366c0-5.746 3.456-8.41 7.702-5.954" stroke="#0572ec"/><path d="m189.282 166.833c-.5 1.374-.749 3.039-.749 4.912 0 7.786 4.538 16.779 10.158 20.026l25.272 14.572v-18.867c0-7.827-4.58-12.108-10.2-15.356l-67.251-38.793" stroke="#66cbff"/><path d="m278.008 212.212v23.004c0 2.114 2.239 3.357 3.98 2.362l33.2-19.149c1.617-.995 2.612-2.611 2.612-4.476v-23.129c0-2.114-2.239-3.357-3.98-2.363l-33.2 19.15c-1.617.995-2.612 2.735-2.612 4.601z" stroke="#cda5dc"/><path d="m317.662 195.816-39.653 22.862" stroke="#cda5dc"/><path d="m763.092 300.766 27.898 16.231" stroke="#0572ec"/><path d="m852.826 145.963c2.554-1.049 8.402-.547 11.358 9.853 3.695 13.001 7.276 22.126 9.372 23.546" stroke="#0572ec"/><path d="m805.404 131.269c10.185 5.917 10.185 34.151 20.371 40.068 10.185 5.916 10.185-22.393 20.371-16.477 10.185 5.917 10.185 34.152 20.371 40.068 10.185 5.917 10.185-22.393 20.371-16.476 10.185 5.916 10.185 34.151 20.371 40.067l41.746 24.142" stroke="#66cbff"/><path d="m242.914 322.114-48.104-27.691-7.49-4.403c-1.549-.906-2.453-2.849-1.937-4.662l3.358-13.728c-1.937-3.108-3.228-6.993-3.228-10.49 0-5.828 3.486-8.677 7.618-6.216 4.261 2.461 7.618 9.195 7.618 15.023 0 3.626-1.291 5.957-3.228 6.864l3.228 11.927" stroke="#66cbff"/></g></g></svg>